<svg id="Layer_1" data-name="Layer 1" xmlns="http://www.w3.org/2000/svg" viewBox="0 0 500 175.76"><defs><style>.cls-1{fill:#00a6c0;}.cls-2{fill:#fff;}</style></defs><path class="cls-1" d="M54,117.93A24,24,0,0,1,46.29,136q-7.68,7.33-19.3,7.34T7.68,136a25.12,25.12,0,0,1,0-36.16q7.7-7.38,19.31-7.38t19.3,7.38A24.12,24.12,0,0,1,54,117.93Zm-39.65,0a13.87,13.87,0,0,0,3.56,9.86,11.94,11.94,0,0,0,9.11,3.8,11.93,11.93,0,0,0,9.1-3.8,13.87,13.87,0,0,0,3.56-9.86,14,14,0,0,0-3.56-9.9,11.83,11.83,0,0,0-9.1-3.85A11.84,11.84,0,0,0,17.88,108,14,14,0,0,0,14.32,117.93Z"/><path class="cls-1" d="M108.51,116v26.58H94.18V115.64c0-3.91-.61-6.78-1.85-8.62s-3.22-2.75-6-2.75a10.37,10.37,0,0,0-7.3,3q-3.18,3-3.18,8.76v26.58H61.65V93.27H75.88v2.87A1.15,1.15,0,0,0,77.8,97a17.07,17.07,0,0,1,11.55-4.53,14.91,14.91,0,0,1,8.77,2.75,18.08,18.08,0,0,1,5.93,6.69,19.84,19.84,0,0,1,7.92-7,22.27,22.27,0,0,1,10-2.47q9,0,14.52,5.18t5.5,15v30H127.67V115.64q0-11.37-8.64-11.37a10.38,10.38,0,0,0-7.39,3Q108.51,110.23,108.51,116Z"/><path class="cls-1" d="M166.27,115.09v27.5H152V93.27h14.23V95.9a1.3,1.3,0,0,0,2.13,1,19.52,19.52,0,0,1,12.38-4.44A18.29,18.29,0,0,1,194.3,98q5.44,5.49,5.45,14.67v30H185.52V114.72q0-11.35-8.63-11.36a10.53,10.53,0,0,0-7.45,3Q166.28,109.31,166.27,115.09Z"/><rect class="cls-1" x="209.8" y="93.27" width="14.23" height="49.32"/><path class="cls-2" d="M262.63,103.45q-8.29-.18-12.42,5-4,4.95-4,13.29v20.9H235.6V93.82h10.62v5.7a1.28,1.28,0,0,0,2.24.84,21.71,21.71,0,0,1,4.74-4.25,17.2,17.2,0,0,1,9.34-3l.09,10.36Z"/><path class="cls-2" d="M281,142.59H270.41V93.82H281Z"/><path class="cls-2" d="M329.5,128a13.55,13.55,0,0,1-5.22,11.14q-5.22,4.17-13.37,4.17a37,37,0,0,1-11.43-1.93A34.46,34.46,0,0,1,289,136l5.12-8q8.82,6.42,17.07,6.41a9.15,9.15,0,0,0,5.7-1.6,5,5,0,0,0,2.08-4.08q0-3.66-10.05-6.6c-.51-.18-.89-.31-1.14-.37Q292,117.66,292,108a12.89,12.89,0,0,1,5.46-10.86q5.44-4.08,14.18-4.08a30.22,30.22,0,0,1,16.5,5l-4,7.61a24.35,24.35,0,0,0-13.38-3.94,12.47,12.47,0,0,0-6.16,1.33,4.29,4.29,0,0,0-2.37,4,3.66,3.66,0,0,0,2.46,3.49,24.63,24.63,0,0,0,4.79,1.56c2.06.49,3.88,1,5.46,1.46s3.11,1,4.6,1.65a31.3,31.3,0,0,1,4.79,2.57Q329.5,121.05,329.5,128Z"/><path class="cls-2" d="M349.32,142.59H338.7V93.82h10.62v16.45a1.76,1.76,0,0,0,3,1.24l17.49-17.69h13.66l-19.16,19.35,20.58,29.42H372L358.23,123a1.82,1.82,0,0,0-2.76-.26l-6.15,6Z"/><path class="cls-1" d="M439.31.17a56.25,56.25,0,0,0-50.14,69.75c.12-.22.21-.45.34-.67A14.24,14.24,0,0,1,394.92,64a15.75,15.75,0,0,1,15,0,14,14,0,0,1,5.38,5.29,15.86,15.86,0,0,1,0,15.31,14.07,14.07,0,0,1-5.38,5.31,15,15,0,0,1-7.48,1.9,16.17,16.17,0,0,1-2.44-.2A56.25,56.25,0,1,0,439.31.17Zm-4.49,91.31-6-11h-1.7v11H420V64.89a2.83,2.83,0,0,1,2.83-2.83h9.67a10.25,10.25,0,0,1,5.18,1.08A9.46,9.46,0,0,1,441.35,67a9.15,9.15,0,0,1,1.2,4.65,8.61,8.61,0,0,1-1.63,5.16A8.79,8.79,0,0,1,436.1,80l6.7,11.48Zm30.81-4.13A8.87,8.87,0,0,1,462,90.58a12.52,12.52,0,0,1-5.66,1.19,14.9,14.9,0,0,1-5.71-1,9.34,9.34,0,0,1-4-3.06A8.41,8.41,0,0,1,445,82.81h7.52a3.65,3.65,0,0,0,1.12,2.46,3.6,3.6,0,0,0,2.48.84,3.89,3.89,0,0,0,2.48-.72,2.44,2.44,0,0,0,.91-2,2.38,2.38,0,0,0-.73-1.77A5.72,5.72,0,0,0,457,80.45a28.4,28.4,0,0,0-3-1,33.05,33.05,0,0,1-4.59-1.74,8.57,8.57,0,0,1-3.06-2.56,7.16,7.16,0,0,1-1.28-4.42A7.61,7.61,0,0,1,448,64.35a12,12,0,0,1,7.64-2.29,12.18,12.18,0,0,1,7.73,2.29,8.18,8.18,0,0,1,3.14,6.39h-7.64a3,3,0,0,0-1-2.21,3.6,3.6,0,0,0-2.43-.81,3.05,3.05,0,0,0-2.07.68,2.62,2.62,0,0,0,.54,4.16A21.56,21.56,0,0,0,458,74.25a38.27,38.27,0,0,1,4.57,1.82,8.68,8.68,0,0,1,3,2.52,6.71,6.71,0,0,1,1.28,4.26A8.35,8.35,0,0,1,465.63,87.35ZM476.5,90.6a4.2,4.2,0,0,1-3.12,1.22,4.3,4.3,0,0,1-3-1.1A3.56,3.56,0,0,1,469.17,88a3.69,3.69,0,0,1,1.17-2.77,4.26,4.26,0,0,1,3-1.11,4.22,4.22,0,0,1,3,1.11A3.7,3.7,0,0,1,477.56,88,3.65,3.65,0,0,1,476.5,90.6Z"/><path class="cls-1" d="M431.47,68.34h-4.38v7.19h4.38a4,4,0,0,0,2.92-1,3.57,3.57,0,0,0,1-2.68,3.48,3.48,0,0,0-1-2.61A4,4,0,0,0,431.47,68.34Z"/><path class="cls-1" d="M408,83a8.78,8.78,0,0,0,2.09-6.11A8.77,8.77,0,0,0,408,70.76a7.15,7.15,0,0,0-5.56-2.3,7.22,7.22,0,0,0-5.6,2.28,8.75,8.75,0,0,0-2.08,6.16A8.76,8.76,0,0,0,396.82,83a7.2,7.2,0,0,0,5.6,2.3A7.09,7.09,0,0,0,408,83Z"/><path class="cls-2" d="M153.06,161.38a3.81,3.81,0,0,0-2,.49,1.61,1.61,0,0,0-.8,1.48,1.69,1.69,0,0,0,.8,1.52,12.37,12.37,0,0,0,3.4,1.14,9.36,9.36,0,0,1,3.92,1.71,4,4,0,0,1,1.31,3.23,4.23,4.23,0,0,1-1.67,3.48,6.78,6.78,0,0,1-4.37,1.33,10.51,10.51,0,0,1-7.05-2.64l1.79-2.08a8.24,8.24,0,0,0,5.33,2.15,3.67,3.67,0,0,0,2.19-.58,1.76,1.76,0,0,0,.81-1.52,1.7,1.7,0,0,0-.76-1.47,8.31,8.31,0,0,0-2.63-1,25.5,25.5,0,0,1-2.83-.79,6.35,6.35,0,0,1-1.72-1,3.9,3.9,0,0,1-1.5-3.37,4,4,0,0,1,1.71-3.49,7,7,0,0,1,4.22-1.23,10.56,10.56,0,0,1,3.22.51,8.84,8.84,0,0,1,2.76,1.45l-1.53,2.08a6,6,0,0,0-2-1.07A8.13,8.13,0,0,0,153.06,161.38Z"/><path class="cls-2" d="M178,173.32a9.51,9.51,0,0,1-12.68,0,8.37,8.37,0,0,1,0-12.07,9.51,9.51,0,0,1,12.68,0,8.39,8.39,0,0,1,0,12.07Zm-2.09-10.24a6,6,0,0,0-10.23,4.2,5.72,5.72,0,0,0,1.73,4.2,6.09,6.09,0,0,0,8.5,0,6,6,0,0,0,0-8.4Z"/><path class="cls-2" d="M184.72,175.57V159.23h2.86V173h7.72v2.62Z"/><path class="cls-2" d="M202.41,171.83a4.43,4.43,0,0,0,6.29,0,5.13,5.13,0,0,0,1.17-3.55v-9.05h2.85v9.16a7.17,7.17,0,1,1-14.32,0v-9.16h2.85v9.05A5.18,5.18,0,0,0,202.41,171.83Z"/><path class="cls-2" d="M224.19,161.75v13.82h-2.85V161.75h-5.13v-2.52h13.11v2.52Z"/><path class="cls-2" d="M233,159.23h2.86v16.34H233Z"/><path class="cls-2" d="M255.33,173.32a9.51,9.51,0,0,1-12.68,0,8.39,8.39,0,0,1,0-12.07,9.51,9.51,0,0,1,12.68,0,8.37,8.37,0,0,1,0,12.07Zm-2.09-10.24a6.07,6.07,0,0,0-8.49,0,6,6,0,0,0,0,8.4,6.07,6.07,0,0,0,8.49,0,6,6,0,0,0,0-8.4Z"/><path class="cls-2" d="M274.79,159.23h2.86v16.34h-3.1L265,163.65v11.92h-2.85V159.23H265l9.83,12.2Z"/><path class="cls-2" d="M288.06,161.38a3.81,3.81,0,0,0-2,.49,1.61,1.61,0,0,0-.8,1.48,1.69,1.69,0,0,0,.8,1.52,12.37,12.37,0,0,0,3.4,1.14,9.36,9.36,0,0,1,3.92,1.71,4,4,0,0,1,1.32,3.23,4.25,4.25,0,0,1-1.67,3.48,6.83,6.83,0,0,1-4.38,1.33,10.47,10.47,0,0,1-7-2.64l1.79-2.08a8.22,8.22,0,0,0,5.32,2.15,3.67,3.67,0,0,0,2.19-.58,1.76,1.76,0,0,0,.81-1.52,1.68,1.68,0,0,0-.76-1.47,8.31,8.31,0,0,0-2.63-1,25.5,25.5,0,0,1-2.83-.79,6.5,6.5,0,0,1-1.72-1,3.9,3.9,0,0,1-1.5-3.37,4,4,0,0,1,1.71-3.49,7,7,0,0,1,4.22-1.23,10.56,10.56,0,0,1,3.22.51,8.84,8.84,0,0,1,2.76,1.45l-1.53,2.08a5.86,5.86,0,0,0-2-1.07A8.08,8.08,0,0,0,288.06,161.38Z"/></svg>